<mxfile host="65bd71144e">
    <diagram id="H651bn8e7qb7VYEZ4PKB" name="Страница 1">
        <mxGraphModel dx="2323" dy="1116" grid="1" gridSize="10" guides="1" tooltips="1" connect="1" arrows="1" fold="1" page="1" pageScale="1" pageWidth="827" pageHeight="1169" background="none" math="0" shadow="0">
            <root>
                <mxCell id="0"/>
                <mxCell id="1" parent="0"/>
                <mxCell id="57" style="edgeStyle=none;html=1;" edge="1" parent="1" source="53" target="56">
                    <mxGeometry relative="1" as="geometry"/>
                </mxCell>
                <mxCell id="53" value="Прерывание Reset" style="shape=process;whiteSpace=wrap;html=1;backgroundOutline=1;" vertex="1" parent="1">
                    <mxGeometry x="40" y="500" width="120" height="40" as="geometry"/>
                </mxCell>
                <mxCell id="95" style="edgeStyle=none;html=1;entryX=0.5;entryY=0;entryDx=0;entryDy=0;" edge="1" parent="1" source="54" target="78">
                    <mxGeometry relative="1" as="geometry"/>
                </mxCell>
                <mxCell id="54" value="Прерывание INT1" style="shape=process;whiteSpace=wrap;html=1;backgroundOutline=1;" vertex="1" parent="1">
                    <mxGeometry x="360" y="40" width="120" height="40" as="geometry"/>
                </mxCell>
                <mxCell id="59" style="edgeStyle=none;html=1;" edge="1" parent="1" source="55" target="58">
                    <mxGeometry relative="1" as="geometry"/>
                </mxCell>
                <mxCell id="55" value="Прерывание INT0" style="shape=process;whiteSpace=wrap;html=1;backgroundOutline=1;" vertex="1" parent="1">
                    <mxGeometry x="200" y="40" width="120" height="40" as="geometry"/>
                </mxCell>
                <mxCell id="188" style="edgeStyle=none;html=1;entryX=0.5;entryY=0;entryDx=0;entryDy=0;" edge="1" parent="1" source="56" target="185">
                    <mxGeometry relative="1" as="geometry"/>
                </mxCell>
                <mxCell id="56" value="Прыгнуть на метку init" style="rounded=1;whiteSpace=wrap;html=1;" vertex="1" parent="1">
                    <mxGeometry x="40" y="560" width="120" height="40" as="geometry"/>
                </mxCell>
                <mxCell id="61" style="edgeStyle=none;html=1;" edge="1" parent="1" source="58" target="60">
                    <mxGeometry relative="1" as="geometry"/>
                </mxCell>
                <mxCell id="58" value="Сохранить tmp_reg в стек" style="rounded=1;whiteSpace=wrap;html=1;" vertex="1" parent="1">
                    <mxGeometry x="200" y="100" width="120" height="40" as="geometry"/>
                </mxCell>
                <mxCell id="63" style="edgeStyle=none;html=1;" edge="1" parent="1" source="60" target="62">
                    <mxGeometry relative="1" as="geometry"/>
                </mxCell>
                <mxCell id="60" value="Инкремент workModeReg" style="rounded=1;whiteSpace=wrap;html=1;" vertex="1" parent="1">
                    <mxGeometry x="200" y="160" width="120" height="40" as="geometry"/>
                </mxCell>
                <mxCell id="65" style="edgeStyle=none;html=1;entryX=0.5;entryY=0;entryDx=0;entryDy=0;" edge="1" parent="1" source="62" target="64">
                    <mxGeometry relative="1" as="geometry"/>
                </mxCell>
                <mxCell id="62" value="tmp_reg = 2" style="rounded=1;whiteSpace=wrap;html=1;" vertex="1" parent="1">
                    <mxGeometry x="200" y="220" width="120" height="40" as="geometry"/>
                </mxCell>
                <mxCell id="67" style="edgeStyle=none;html=1;" edge="1" parent="1" source="64" target="66">
                    <mxGeometry relative="1" as="geometry"/>
                </mxCell>
                <mxCell id="64" value="tmp_reg &amp;amp;= workModeReg" style="rounded=1;whiteSpace=wrap;html=1;" vertex="1" parent="1">
                    <mxGeometry x="200" y="280" width="120" height="40" as="geometry"/>
                </mxCell>
                <mxCell id="69" style="edgeStyle=none;html=1;entryX=0.5;entryY=0;entryDx=0;entryDy=0;" edge="1" parent="1" source="66" target="68">
                    <mxGeometry relative="1" as="geometry"/>
                </mxCell>
                <mxCell id="70" value="Да" style="edgeLabel;html=1;align=center;verticalAlign=middle;resizable=0;points=[];" vertex="1" connectable="0" parent="69">
                    <mxGeometry x="-0.4791" y="1" relative="1" as="geometry">
                        <mxPoint as="offset"/>
                    </mxGeometry>
                </mxCell>
                <mxCell id="72" style="edgeStyle=none;html=1;exitX=1;exitY=0.5;exitDx=0;exitDy=0;entryX=1;entryY=0.5;entryDx=0;entryDy=0;" edge="1" parent="1" source="66" target="71">
                    <mxGeometry relative="1" as="geometry">
                        <mxPoint x="360" y="530" as="targetPoint"/>
                        <Array as="points">
                            <mxPoint x="340" y="380"/>
                            <mxPoint x="340" y="520"/>
                        </Array>
                    </mxGeometry>
                </mxCell>
                <mxCell id="73" value="Нет" style="edgeLabel;html=1;align=center;verticalAlign=middle;resizable=0;points=[];" vertex="1" connectable="0" parent="72">
                    <mxGeometry x="-0.0755" y="1" relative="1" as="geometry">
                        <mxPoint y="-23" as="offset"/>
                    </mxGeometry>
                </mxCell>
                <mxCell id="66" value="В результате &lt;br&gt;было не 0" style="rhombus;whiteSpace=wrap;html=1;" vertex="1" parent="1">
                    <mxGeometry x="200" y="340" width="120" height="80" as="geometry"/>
                </mxCell>
                <mxCell id="74" style="edgeStyle=none;html=1;entryX=0.5;entryY=0;entryDx=0;entryDy=0;" edge="1" parent="1" source="68" target="71">
                    <mxGeometry relative="1" as="geometry"/>
                </mxCell>
                <mxCell id="68" value="tmp_reg = 0xFC&lt;br&gt;workModeReg &amp;amp;= tmp_reg" style="rounded=1;whiteSpace=wrap;html=1;" vertex="1" parent="1">
                    <mxGeometry x="190" y="440" width="140" height="50" as="geometry"/>
                </mxCell>
                <mxCell id="76" style="edgeStyle=none;html=1;entryX=0.5;entryY=0;entryDx=0;entryDy=0;" edge="1" parent="1" source="71" target="75">
                    <mxGeometry relative="1" as="geometry"/>
                </mxCell>
                <mxCell id="71" value="Считать tmp_reg &lt;br&gt;из стека" style="rounded=1;whiteSpace=wrap;html=1;" vertex="1" parent="1">
                    <mxGeometry x="200" y="500" width="120" height="40" as="geometry"/>
                </mxCell>
                <mxCell id="99" style="edgeStyle=none;html=1;entryX=0.5;entryY=0;entryDx=0;entryDy=0;" edge="1" parent="1" source="75" target="96">
                    <mxGeometry relative="1" as="geometry"/>
                </mxCell>
                <mxCell id="75" value="Включить прерывания" style="rounded=1;whiteSpace=wrap;html=1;" vertex="1" parent="1">
                    <mxGeometry x="200" y="560" width="120" height="40" as="geometry"/>
                </mxCell>
                <mxCell id="77" style="edgeStyle=none;html=1;" edge="1" parent="1" source="78" target="80">
                    <mxGeometry relative="1" as="geometry"/>
                </mxCell>
                <mxCell id="78" value="Сохранить tmp_reg в стек" style="rounded=1;whiteSpace=wrap;html=1;" vertex="1" parent="1">
                    <mxGeometry x="360" y="100" width="120" height="40" as="geometry"/>
                </mxCell>
                <mxCell id="79" style="edgeStyle=none;html=1;" edge="1" parent="1" source="80" target="82">
                    <mxGeometry relative="1" as="geometry"/>
                </mxCell>
                <mxCell id="80" value="tmp_reg = 4&lt;br&gt;workModeReg+=tmp_reg" style="rounded=1;whiteSpace=wrap;html=1;" vertex="1" parent="1">
                    <mxGeometry x="350" y="160" width="140" height="40" as="geometry"/>
                </mxCell>
                <mxCell id="81" style="edgeStyle=none;html=1;entryX=0.5;entryY=0;entryDx=0;entryDy=0;" edge="1" parent="1" source="82" target="84">
                    <mxGeometry relative="1" as="geometry"/>
                </mxCell>
                <mxCell id="82" value="tmp_reg = 12&lt;br&gt;tmp_reg &amp;amp;= workModeReg" style="rounded=1;whiteSpace=wrap;html=1;" vertex="1" parent="1">
                    <mxGeometry x="350" y="210" width="140" height="60" as="geometry"/>
                </mxCell>
                <mxCell id="83" style="edgeStyle=none;html=1;" edge="1" parent="1" source="84" target="89">
                    <mxGeometry relative="1" as="geometry"/>
                </mxCell>
                <mxCell id="84" value="tmp_reg -= 12" style="rounded=1;whiteSpace=wrap;html=1;" vertex="1" parent="1">
                    <mxGeometry x="360" y="280" width="120" height="40" as="geometry"/>
                </mxCell>
                <mxCell id="85" style="edgeStyle=none;html=1;entryX=0.5;entryY=0;entryDx=0;entryDy=0;" edge="1" parent="1" source="89" target="91">
                    <mxGeometry relative="1" as="geometry"/>
                </mxCell>
                <mxCell id="86" value="Да" style="edgeLabel;html=1;align=center;verticalAlign=middle;resizable=0;points=[];" vertex="1" connectable="0" parent="85">
                    <mxGeometry x="-0.4791" y="1" relative="1" as="geometry">
                        <mxPoint as="offset"/>
                    </mxGeometry>
                </mxCell>
                <mxCell id="87" style="edgeStyle=none;html=1;exitX=1;exitY=0.5;exitDx=0;exitDy=0;entryX=1;entryY=0.5;entryDx=0;entryDy=0;" edge="1" parent="1" source="89" target="93">
                    <mxGeometry relative="1" as="geometry">
                        <mxPoint x="520" y="530" as="targetPoint"/>
                        <Array as="points">
                            <mxPoint x="500" y="380"/>
                            <mxPoint x="500" y="520"/>
                        </Array>
                    </mxGeometry>
                </mxCell>
                <mxCell id="88" value="Нет" style="edgeLabel;html=1;align=center;verticalAlign=middle;resizable=0;points=[];" vertex="1" connectable="0" parent="87">
                    <mxGeometry x="-0.0755" y="1" relative="1" as="geometry">
                        <mxPoint y="-23" as="offset"/>
                    </mxGeometry>
                </mxCell>
                <mxCell id="89" value="В результате &lt;br&gt;было 0" style="rhombus;whiteSpace=wrap;html=1;" vertex="1" parent="1">
                    <mxGeometry x="360" y="340" width="120" height="80" as="geometry"/>
                </mxCell>
                <mxCell id="90" style="edgeStyle=none;html=1;entryX=0.5;entryY=0;entryDx=0;entryDy=0;" edge="1" parent="1" source="91" target="93">
                    <mxGeometry relative="1" as="geometry"/>
                </mxCell>
                <mxCell id="91" value="tmp_reg = 0xE3&lt;br&gt;workModeReg &amp;amp;= tmp_reg" style="rounded=1;whiteSpace=wrap;html=1;" vertex="1" parent="1">
                    <mxGeometry x="350" y="440" width="140" height="50" as="geometry"/>
                </mxCell>
                <mxCell id="92" style="edgeStyle=none;html=1;entryX=0.5;entryY=0;entryDx=0;entryDy=0;" edge="1" parent="1" source="93" target="94">
                    <mxGeometry relative="1" as="geometry"/>
                </mxCell>
                <mxCell id="93" value="Считать tmp_reg &lt;br&gt;из стека" style="rounded=1;whiteSpace=wrap;html=1;" vertex="1" parent="1">
                    <mxGeometry x="360" y="500" width="120" height="40" as="geometry"/>
                </mxCell>
                <mxCell id="98" style="edgeStyle=none;html=1;entryX=0.5;entryY=0;entryDx=0;entryDy=0;" edge="1" parent="1" source="94" target="97">
                    <mxGeometry relative="1" as="geometry"/>
                </mxCell>
                <mxCell id="94" value="Включить прерывания" style="rounded=1;whiteSpace=wrap;html=1;" vertex="1" parent="1">
                    <mxGeometry x="360" y="560" width="120" height="40" as="geometry"/>
                </mxCell>
                <mxCell id="213" style="edgeStyle=none;html=1;entryX=0.5;entryY=0;entryDx=0;entryDy=0;exitX=0.5;exitY=1;exitDx=0;exitDy=0;" edge="1" parent="1" source="96" target="211">
                    <mxGeometry relative="1" as="geometry">
                        <Array as="points">
                            <mxPoint x="260" y="710"/>
                            <mxPoint x="360" y="710"/>
                            <mxPoint x="420" y="710"/>
                        </Array>
                    </mxGeometry>
                </mxCell>
                <mxCell id="96" value="Прыгнуть &lt;br&gt;на метку main" style="rounded=1;whiteSpace=wrap;html=1;" vertex="1" parent="1">
                    <mxGeometry x="200" y="620" width="120" height="40" as="geometry"/>
                </mxCell>
                <mxCell id="214" style="edgeStyle=none;html=1;" edge="1" parent="1" source="97">
                    <mxGeometry relative="1" as="geometry">
                        <mxPoint x="420" y="760" as="targetPoint"/>
                    </mxGeometry>
                </mxCell>
                <mxCell id="97" value="Прыгнуть &lt;br&gt;на метку main" style="rounded=1;whiteSpace=wrap;html=1;gradientColor=none;glass=0;" vertex="1" parent="1">
                    <mxGeometry x="360" y="620" width="120" height="40" as="geometry"/>
                </mxCell>
                <mxCell id="102" style="edgeStyle=none;html=1;entryX=0.5;entryY=0;entryDx=0;entryDy=0;" edge="1" parent="1" source="100" target="101">
                    <mxGeometry relative="1" as="geometry"/>
                </mxCell>
                <mxCell id="100" value="delay&lt;br&gt;(1 мс)" style="shape=process;whiteSpace=wrap;html=1;backgroundOutline=1;" vertex="1" parent="1">
                    <mxGeometry x="520" y="40" width="120" height="40" as="geometry"/>
                </mxCell>
                <mxCell id="104" style="edgeStyle=none;html=1;entryX=0.5;entryY=0;entryDx=0;entryDy=0;" edge="1" parent="1" source="101" target="103">
                    <mxGeometry relative="1" as="geometry"/>
                </mxCell>
                <mxCell id="101" value="Очистить регистры таймера и R1" style="rounded=1;whiteSpace=wrap;html=1;" vertex="1" parent="1">
                    <mxGeometry x="520" y="100" width="120" height="40" as="geometry"/>
                </mxCell>
                <mxCell id="106" style="edgeStyle=none;html=1;entryX=0.5;entryY=0;entryDx=0;entryDy=0;" edge="1" parent="1" source="103" target="105">
                    <mxGeometry relative="1" as="geometry"/>
                </mxCell>
                <mxCell id="103" value="Положить в первые 2 регистра 0 и 1" style="rounded=1;whiteSpace=wrap;html=1;" vertex="1" parent="1">
                    <mxGeometry x="520" y="160" width="120" height="40" as="geometry"/>
                </mxCell>
                <mxCell id="111" style="edgeStyle=none;html=1;entryX=0.5;entryY=0;entryDx=0;entryDy=0;" edge="1" parent="1" source="105" target="108">
                    <mxGeometry relative="1" as="geometry"/>
                </mxCell>
                <mxCell id="105" value="Сдвинуть первые 2 регистра на 2 влево" style="rounded=1;whiteSpace=wrap;html=1;" vertex="1" parent="1">
                    <mxGeometry x="520" y="220" width="120" height="40" as="geometry"/>
                </mxCell>
                <mxCell id="110" style="edgeStyle=none;html=1;entryX=0.5;entryY=0;entryDx=0;entryDy=0;" edge="1" parent="1" source="108" target="109">
                    <mxGeometry relative="1" as="geometry"/>
                </mxCell>
                <mxCell id="108" value="Начало цикла" style="rounded=0;whiteSpace=wrap;html=1;" vertex="1" parent="1">
                    <mxGeometry x="520" y="280" width="120" height="40" as="geometry"/>
                </mxCell>
                <mxCell id="129" style="edgeStyle=none;html=1;entryX=0.5;entryY=0;entryDx=0;entryDy=0;" edge="1" parent="1" source="109" target="128">
                    <mxGeometry relative="1" as="geometry"/>
                </mxCell>
                <mxCell id="109" value="Вычесть 1 из 24-х разрядного числа &lt;br&gt;(3-х регистров)" style="rounded=1;whiteSpace=wrap;html=1;" vertex="1" parent="1">
                    <mxGeometry x="520" y="330" width="120" height="60" as="geometry"/>
                </mxCell>
                <mxCell id="151" style="edgeStyle=none;html=1;entryX=0.5;entryY=0;entryDx=0;entryDy=0;" edge="1" parent="1" source="112" target="113">
                    <mxGeometry relative="1" as="geometry"/>
                </mxCell>
                <mxCell id="112" value="NOP" style="rounded=1;whiteSpace=wrap;html=1;" vertex="1" parent="1">
                    <mxGeometry x="670" y="430" width="40" height="20" as="geometry"/>
                </mxCell>
                <mxCell id="150" style="edgeStyle=none;html=1;entryX=0.5;entryY=0;entryDx=0;entryDy=0;" edge="1" parent="1" source="113" target="114">
                    <mxGeometry relative="1" as="geometry"/>
                </mxCell>
                <mxCell id="113" value="NOP" style="rounded=1;whiteSpace=wrap;html=1;" vertex="1" parent="1">
                    <mxGeometry x="670" y="460" width="40" height="20" as="geometry"/>
                </mxCell>
                <mxCell id="149" style="edgeStyle=none;html=1;entryX=0.5;entryY=0;entryDx=0;entryDy=0;" edge="1" parent="1" source="114" target="115">
                    <mxGeometry relative="1" as="geometry"/>
                </mxCell>
                <mxCell id="114" value="NOP" style="rounded=1;whiteSpace=wrap;html=1;" vertex="1" parent="1">
                    <mxGeometry x="670" y="490" width="40" height="20" as="geometry"/>
                </mxCell>
                <mxCell id="148" style="edgeStyle=none;html=1;entryX=0.5;entryY=0;entryDx=0;entryDy=0;" edge="1" parent="1" source="115" target="116">
                    <mxGeometry relative="1" as="geometry"/>
                </mxCell>
                <mxCell id="115" value="NOP" style="rounded=1;whiteSpace=wrap;html=1;" vertex="1" parent="1">
                    <mxGeometry x="670" y="520" width="40" height="20" as="geometry"/>
                </mxCell>
                <mxCell id="147" style="edgeStyle=none;html=1;entryX=0.5;entryY=0;entryDx=0;entryDy=0;" edge="1" parent="1" source="116" target="117">
                    <mxGeometry relative="1" as="geometry"/>
                </mxCell>
                <mxCell id="116" value="NOP" style="rounded=1;whiteSpace=wrap;html=1;" vertex="1" parent="1">
                    <mxGeometry x="670" y="550" width="40" height="20" as="geometry"/>
                </mxCell>
                <mxCell id="146" style="edgeStyle=none;html=1;entryX=0.5;entryY=0;entryDx=0;entryDy=0;" edge="1" parent="1" source="117" target="118">
                    <mxGeometry relative="1" as="geometry"/>
                </mxCell>
                <mxCell id="117" value="NOP" style="rounded=1;whiteSpace=wrap;html=1;" vertex="1" parent="1">
                    <mxGeometry x="670" y="580" width="40" height="20" as="geometry"/>
                </mxCell>
                <mxCell id="145" style="edgeStyle=none;html=1;entryX=0.5;entryY=0;entryDx=0;entryDy=0;" edge="1" parent="1" source="118" target="119">
                    <mxGeometry relative="1" as="geometry"/>
                </mxCell>
                <mxCell id="118" value="NOP" style="rounded=1;whiteSpace=wrap;html=1;" vertex="1" parent="1">
                    <mxGeometry x="670" y="610" width="40" height="20" as="geometry"/>
                </mxCell>
                <mxCell id="158" style="edgeStyle=none;html=1;entryX=1;entryY=0.5;entryDx=0;entryDy=0;" edge="1" parent="1" source="119" target="108">
                    <mxGeometry relative="1" as="geometry">
                        <Array as="points">
                            <mxPoint x="720" y="650"/>
                            <mxPoint x="720" y="300"/>
                        </Array>
                    </mxGeometry>
                </mxCell>
                <mxCell id="119" value="NOP" style="rounded=1;whiteSpace=wrap;html=1;" vertex="1" parent="1">
                    <mxGeometry x="670" y="640" width="40" height="20" as="geometry"/>
                </mxCell>
                <mxCell id="134" style="edgeStyle=none;html=1;entryX=0.5;entryY=0;entryDx=0;entryDy=0;" edge="1" parent="1" source="128" target="132">
                    <mxGeometry relative="1" as="geometry"/>
                </mxCell>
                <mxCell id="136" value="Нет" style="edgeLabel;html=1;align=center;verticalAlign=middle;resizable=0;points=[];" vertex="1" connectable="0" parent="134">
                    <mxGeometry x="-0.6" relative="1" as="geometry">
                        <mxPoint as="offset"/>
                    </mxGeometry>
                </mxCell>
                <mxCell id="152" style="edgeStyle=none;html=1;entryX=0;entryY=0.5;entryDx=0;entryDy=0;exitX=1;exitY=0.5;exitDx=0;exitDy=0;" edge="1" parent="1" source="128" target="112">
                    <mxGeometry relative="1" as="geometry"/>
                </mxCell>
                <mxCell id="153" value="Да" style="edgeLabel;html=1;align=center;verticalAlign=middle;resizable=0;points=[];" vertex="1" connectable="0" parent="152">
                    <mxGeometry x="-0.4207" relative="1" as="geometry">
                        <mxPoint x="1" y="-4" as="offset"/>
                    </mxGeometry>
                </mxCell>
                <mxCell id="128" value="Не 0 в&lt;br&gt;первом &lt;br&gt;регистре" style="rhombus;whiteSpace=wrap;html=1;" vertex="1" parent="1">
                    <mxGeometry x="520" y="410" width="120" height="70" as="geometry"/>
                </mxCell>
                <mxCell id="135" style="edgeStyle=none;html=1;entryX=0.5;entryY=0;entryDx=0;entryDy=0;" edge="1" parent="1" source="132" target="133">
                    <mxGeometry relative="1" as="geometry"/>
                </mxCell>
                <mxCell id="137" value="Нет" style="edgeLabel;html=1;align=center;verticalAlign=middle;resizable=0;points=[];" vertex="1" connectable="0" parent="135">
                    <mxGeometry x="-0.5667" relative="1" as="geometry">
                        <mxPoint as="offset"/>
                    </mxGeometry>
                </mxCell>
                <mxCell id="154" style="edgeStyle=none;html=1;entryX=0;entryY=0.5;entryDx=0;entryDy=0;exitX=1;exitY=0.5;exitDx=0;exitDy=0;" edge="1" parent="1" source="132" target="115">
                    <mxGeometry relative="1" as="geometry"/>
                </mxCell>
                <mxCell id="155" value="Да" style="edgeLabel;html=1;align=center;verticalAlign=middle;resizable=0;points=[];" vertex="1" connectable="0" parent="154">
                    <mxGeometry x="-0.3514" y="1" relative="1" as="geometry">
                        <mxPoint y="-2" as="offset"/>
                    </mxGeometry>
                </mxCell>
                <mxCell id="132" value="Не 0 во&lt;br&gt;втором&lt;br&gt;регистре" style="rhombus;whiteSpace=wrap;html=1;" vertex="1" parent="1">
                    <mxGeometry x="520" y="500" width="120" height="70" as="geometry"/>
                </mxCell>
                <mxCell id="143" style="edgeStyle=none;html=1;entryX=0.5;entryY=0;entryDx=0;entryDy=0;" edge="1" parent="1" source="133" target="142">
                    <mxGeometry relative="1" as="geometry"/>
                </mxCell>
                <mxCell id="144" value="Нет" style="edgeLabel;html=1;align=center;verticalAlign=middle;resizable=0;points=[];" vertex="1" connectable="0" parent="143">
                    <mxGeometry x="-0.4" relative="1" as="geometry">
                        <mxPoint as="offset"/>
                    </mxGeometry>
                </mxCell>
                <mxCell id="156" style="edgeStyle=none;html=1;entryX=0;entryY=0.5;entryDx=0;entryDy=0;exitX=1.023;exitY=0.499;exitDx=0;exitDy=0;exitPerimeter=0;" edge="1" parent="1" source="133" target="118">
                    <mxGeometry relative="1" as="geometry"/>
                </mxCell>
                <mxCell id="157" value="Да" style="edgeLabel;html=1;align=center;verticalAlign=middle;resizable=0;points=[];" vertex="1" connectable="0" parent="156">
                    <mxGeometry x="-0.4333" y="1" relative="1" as="geometry">
                        <mxPoint y="-3" as="offset"/>
                    </mxGeometry>
                </mxCell>
                <mxCell id="133" value="Не 0 в&lt;br&gt;третьем&lt;br&gt;регистре" style="rhombus;whiteSpace=wrap;html=1;" vertex="1" parent="1">
                    <mxGeometry x="520" y="590" width="120" height="70" as="geometry"/>
                </mxCell>
                <mxCell id="142" value="Вернуться в &lt;br&gt;место вызова" style="shape=hexagon;perimeter=hexagonPerimeter2;whiteSpace=wrap;html=1;fixedSize=1;" vertex="1" parent="1">
                    <mxGeometry x="520" y="680" width="120" height="40" as="geometry"/>
                </mxCell>
                <mxCell id="161" style="edgeStyle=none;html=1;entryX=0.5;entryY=0;entryDx=0;entryDy=0;" edge="1" parent="1" source="159" target="160">
                    <mxGeometry relative="1" as="geometry"/>
                </mxCell>
                <mxCell id="159" value="adc_convert" style="shape=process;whiteSpace=wrap;html=1;backgroundOutline=1;" vertex="1" parent="1">
                    <mxGeometry x="730" y="40" width="120" height="40" as="geometry"/>
                </mxCell>
                <mxCell id="163" style="edgeStyle=none;html=1;entryX=0.5;entryY=0;entryDx=0;entryDy=0;" edge="1" parent="1" source="160" target="162">
                    <mxGeometry relative="1" as="geometry"/>
                </mxCell>
                <mxCell id="160" value="Положить в ADMUX&lt;br&gt;01100101" style="rounded=1;whiteSpace=wrap;html=1;glass=0;gradientColor=none;" vertex="1" parent="1">
                    <mxGeometry x="730" y="100" width="120" height="40" as="geometry"/>
                </mxCell>
                <mxCell id="168" style="edgeStyle=none;html=1;entryX=0.5;entryY=0;entryDx=0;entryDy=0;" edge="1" parent="1" source="162" target="166">
                    <mxGeometry relative="1" as="geometry"/>
                </mxCell>
                <mxCell id="162" value="Поставить бит ADSC в 1" style="rounded=1;whiteSpace=wrap;html=1;glass=0;gradientColor=none;" vertex="1" parent="1">
                    <mxGeometry x="730" y="160" width="120" height="40" as="geometry"/>
                </mxCell>
                <mxCell id="169" style="edgeStyle=none;html=1;entryX=1;entryY=0.5;entryDx=0;entryDy=0;exitX=1;exitY=0.5;exitDx=0;exitDy=0;" edge="1" parent="1" source="164" target="166">
                    <mxGeometry relative="1" as="geometry">
                        <Array as="points">
                            <mxPoint x="860" y="320"/>
                            <mxPoint x="860" y="240"/>
                        </Array>
                    </mxGeometry>
                </mxCell>
                <mxCell id="170" value="Нет" style="edgeLabel;html=1;align=center;verticalAlign=middle;resizable=0;points=[];" vertex="1" connectable="0" parent="169">
                    <mxGeometry x="-0.6" relative="1" as="geometry">
                        <mxPoint x="6" y="-40" as="offset"/>
                    </mxGeometry>
                </mxCell>
                <mxCell id="172" style="edgeStyle=none;html=1;entryX=0.5;entryY=0;entryDx=0;entryDy=0;" edge="1" parent="1" source="164" target="171">
                    <mxGeometry relative="1" as="geometry"/>
                </mxCell>
                <mxCell id="173" value="Да" style="edgeLabel;html=1;align=center;verticalAlign=middle;resizable=0;points=[];" vertex="1" connectable="0" parent="172">
                    <mxGeometry x="-0.4402" y="-1" relative="1" as="geometry">
                        <mxPoint as="offset"/>
                    </mxGeometry>
                </mxCell>
                <mxCell id="164" value="Если 0" style="rhombus;whiteSpace=wrap;html=1;glass=0;gradientColor=none;" vertex="1" parent="1">
                    <mxGeometry x="750" y="280" width="80" height="80" as="geometry"/>
                </mxCell>
                <mxCell id="167" style="edgeStyle=none;html=1;entryX=0.5;entryY=0;entryDx=0;entryDy=0;" edge="1" parent="1" source="166" target="164">
                    <mxGeometry relative="1" as="geometry"/>
                </mxCell>
                <mxCell id="166" value="Считать бит ADSC" style="rounded=1;whiteSpace=wrap;html=1;glass=0;gradientColor=none;" vertex="1" parent="1">
                    <mxGeometry x="730" y="220" width="120" height="40" as="geometry"/>
                </mxCell>
                <mxCell id="175" style="edgeStyle=none;html=1;entryX=0.5;entryY=0;entryDx=0;entryDy=0;" edge="1" parent="1" source="171" target="174">
                    <mxGeometry relative="1" as="geometry"/>
                </mxCell>
                <mxCell id="171" value="adc_res = ADCH" style="rounded=1;whiteSpace=wrap;html=1;glass=0;gradientColor=none;" vertex="1" parent="1">
                    <mxGeometry x="730" y="380" width="120" height="40" as="geometry"/>
                </mxCell>
                <mxCell id="174" value="Вернуться в &lt;br&gt;место вызова" style="shape=hexagon;perimeter=hexagonPerimeter2;whiteSpace=wrap;html=1;fixedSize=1;" vertex="1" parent="1">
                    <mxGeometry x="730" y="440" width="120" height="40" as="geometry"/>
                </mxCell>
                <mxCell id="178" style="edgeStyle=none;html=1;entryX=0.5;entryY=0;entryDx=0;entryDy=0;" edge="1" parent="1" source="176" target="177">
                    <mxGeometry relative="1" as="geometry"/>
                </mxCell>
                <mxCell id="176" value="printByte_func" style="shape=process;whiteSpace=wrap;html=1;backgroundOutline=1;" vertex="1" parent="1">
                    <mxGeometry x="40" y="40" width="120" height="40" as="geometry"/>
                </mxCell>
                <mxCell id="180" style="edgeStyle=none;html=1;entryX=0.5;entryY=0;entryDx=0;entryDy=0;" edge="1" parent="1" source="177" target="179">
                    <mxGeometry relative="1" as="geometry"/>
                </mxCell>
                <mxCell id="177" value="Сохранить tmp_reg в стек" style="rounded=1;whiteSpace=wrap;html=1;" vertex="1" parent="1">
                    <mxGeometry x="40" y="100" width="120" height="40" as="geometry"/>
                </mxCell>
                <mxCell id="182" style="edgeStyle=none;html=1;entryX=0.5;entryY=0;entryDx=0;entryDy=0;" edge="1" parent="1" source="179" target="181">
                    <mxGeometry relative="1" as="geometry"/>
                </mxCell>
                <mxCell id="179" value="В зависимости от&lt;br&gt;&amp;nbsp;значения printByte&lt;br&gt;положить в него&lt;br&gt;соответствующее&lt;br&gt;значение из&lt;br&gt;таблицы" style="rounded=1;whiteSpace=wrap;html=1;" vertex="1" parent="1">
                    <mxGeometry x="40" y="160" width="120" height="110" as="geometry"/>
                </mxCell>
                <mxCell id="184" style="edgeStyle=none;html=1;entryX=0.5;entryY=0;entryDx=0;entryDy=0;" edge="1" parent="1" source="181" target="183">
                    <mxGeometry relative="1" as="geometry"/>
                </mxCell>
                <mxCell id="181" value="Считать tmp_reg &lt;br&gt;из стека" style="rounded=1;whiteSpace=wrap;html=1;" vertex="1" parent="1">
                    <mxGeometry x="40" y="300" width="120" height="40" as="geometry"/>
                </mxCell>
                <mxCell id="183" value="Вернуться в &lt;br&gt;место вызова" style="shape=hexagon;perimeter=hexagonPerimeter2;whiteSpace=wrap;html=1;fixedSize=1;" vertex="1" parent="1">
                    <mxGeometry x="40" y="360" width="120" height="40" as="geometry"/>
                </mxCell>
                <mxCell id="189" style="edgeStyle=none;html=1;entryX=0.5;entryY=0;entryDx=0;entryDy=0;" edge="1" parent="1" source="185" target="187">
                    <mxGeometry relative="1" as="geometry"/>
                </mxCell>
                <mxCell id="185" value="init" style="shape=process;whiteSpace=wrap;html=1;backgroundOutline=1;glass=0;gradientColor=none;" vertex="1" parent="1">
                    <mxGeometry x="40" y="760" width="120" height="40" as="geometry"/>
                </mxCell>
                <mxCell id="191" style="edgeStyle=none;html=1;entryX=0.5;entryY=0;entryDx=0;entryDy=0;" edge="1" parent="1" source="187" target="190">
                    <mxGeometry relative="1" as="geometry"/>
                </mxCell>
                <mxCell id="187" value="Открыть порты &lt;br&gt;на запись/чтение" style="rounded=1;whiteSpace=wrap;html=1;glass=0;gradientColor=none;" vertex="1" parent="1">
                    <mxGeometry x="40" y="820" width="120" height="40" as="geometry"/>
                </mxCell>
                <mxCell id="194" style="edgeStyle=none;html=1;" edge="1" parent="1" source="190" target="193">
                    <mxGeometry relative="1" as="geometry"/>
                </mxCell>
                <mxCell id="190" value="Настроить стек" style="rounded=1;whiteSpace=wrap;html=1;glass=0;gradientColor=none;" vertex="1" parent="1">
                    <mxGeometry x="40" y="880" width="120" height="40" as="geometry"/>
                </mxCell>
                <mxCell id="196" style="edgeStyle=none;html=1;entryX=0.5;entryY=0;entryDx=0;entryDy=0;" edge="1" parent="1" source="193" target="195">
                    <mxGeometry relative="1" as="geometry"/>
                </mxCell>
                <mxCell id="193" value="Остановить&lt;br&gt;прерывания" style="rounded=1;whiteSpace=wrap;html=1;glass=0;gradientColor=none;" vertex="1" parent="1">
                    <mxGeometry x="40" y="940" width="120" height="40" as="geometry"/>
                </mxCell>
                <mxCell id="198" style="edgeStyle=none;html=1;" edge="1" parent="1" source="195" target="197">
                    <mxGeometry relative="1" as="geometry"/>
                </mxCell>
                <mxCell id="195" value="Настроить АЦП" style="rounded=1;whiteSpace=wrap;html=1;glass=0;gradientColor=none;" vertex="1" parent="1">
                    <mxGeometry x="40" y="1000" width="120" height="40" as="geometry"/>
                </mxCell>
                <mxCell id="210" style="edgeStyle=none;html=1;entryX=0;entryY=0.5;entryDx=0;entryDy=0;exitX=1;exitY=0.5;exitDx=0;exitDy=0;" edge="1" parent="1" source="197" target="199">
                    <mxGeometry relative="1" as="geometry">
                        <Array as="points">
                            <mxPoint x="180" y="1070"/>
                            <mxPoint x="180" y="780"/>
                        </Array>
                    </mxGeometry>
                </mxCell>
                <mxCell id="197" value="adc_convert" style="shape=hexagon;perimeter=hexagonPerimeter2;whiteSpace=wrap;html=1;fixedSize=1;glass=0;gradientColor=none;" vertex="1" parent="1">
                    <mxGeometry x="40" y="1060" width="120" height="20" as="geometry"/>
                </mxCell>
                <mxCell id="199" value="Настроить ШИМ" style="rounded=1;whiteSpace=wrap;html=1;glass=0;gradientColor=none;" vertex="1" parent="1">
                    <mxGeometry x="200" y="760" width="120" height="40" as="geometry"/>
                </mxCell>
                <mxCell id="205" style="edgeStyle=none;html=1;entryX=0.5;entryY=0;entryDx=0;entryDy=0;" edge="1" parent="1" source="201" target="204">
                    <mxGeometry relative="1" as="geometry"/>
                </mxCell>
                <mxCell id="201" value="Очистить регистры &lt;br&gt;ШИМ" style="rounded=1;whiteSpace=wrap;html=1;glass=0;gradientColor=none;" vertex="1" parent="1">
                    <mxGeometry x="200" y="820" width="120" height="40" as="geometry"/>
                </mxCell>
                <mxCell id="207" style="edgeStyle=none;html=1;" edge="1" parent="1" source="204" target="206">
                    <mxGeometry relative="1" as="geometry"/>
                </mxCell>
                <mxCell id="204" value="Настроить&lt;br&gt;прерывания" style="rounded=1;whiteSpace=wrap;html=1;glass=0;gradientColor=none;" vertex="1" parent="1">
                    <mxGeometry x="200" y="880" width="120" height="40" as="geometry"/>
                </mxCell>
                <mxCell id="209" style="edgeStyle=none;html=1;" edge="1" parent="1" source="206" target="208">
                    <mxGeometry relative="1" as="geometry"/>
                </mxCell>
                <mxCell id="206" value="Задать режим работы как 0" style="rounded=1;whiteSpace=wrap;html=1;glass=0;gradientColor=none;" vertex="1" parent="1">
                    <mxGeometry x="200" y="940" width="120" height="40" as="geometry"/>
                </mxCell>
                <mxCell id="212" style="edgeStyle=none;html=1;entryX=0;entryY=0.5;entryDx=0;entryDy=0;exitX=0.5;exitY=1;exitDx=0;exitDy=0;" edge="1" parent="1" source="208" target="211">
                    <mxGeometry relative="1" as="geometry">
                        <Array as="points">
                            <mxPoint x="260" y="1070"/>
                            <mxPoint x="340" y="1070"/>
                            <mxPoint x="340" y="780"/>
                        </Array>
                    </mxGeometry>
                </mxCell>
                <mxCell id="208" value="Включить&lt;br&gt;прерывания" style="rounded=1;whiteSpace=wrap;html=1;glass=0;gradientColor=none;" vertex="1" parent="1">
                    <mxGeometry x="200" y="1000" width="120" height="40" as="geometry"/>
                </mxCell>
                <mxCell id="218" style="edgeStyle=none;html=1;entryX=0;entryY=0.5;entryDx=0;entryDy=0;" edge="1" parent="1" source="211" target="215">
                    <mxGeometry relative="1" as="geometry">
                        <Array as="points">
                            <mxPoint x="420" y="880"/>
                            <mxPoint x="370" y="920"/>
                            <mxPoint x="370" y="940"/>
                        </Array>
                    </mxGeometry>
                </mxCell>
                <mxCell id="211" value="main" style="shape=process;whiteSpace=wrap;html=1;backgroundOutline=1;glass=0;gradientColor=none;" vertex="1" parent="1">
                    <mxGeometry x="360" y="760" width="120" height="40" as="geometry"/>
                </mxCell>
                <mxCell id="219" style="edgeStyle=none;html=1;entryX=0;entryY=0.5;entryDx=0;entryDy=0;exitX=0.5;exitY=0;exitDx=0;exitDy=0;" edge="1" parent="1" source="215" target="217">
                    <mxGeometry relative="1" as="geometry">
                        <Array as="points">
                            <mxPoint x="440" y="820"/>
                        </Array>
                    </mxGeometry>
                </mxCell>
                <mxCell id="222" value="Нет" style="edgeLabel;html=1;align=center;verticalAlign=middle;resizable=0;points=[];" vertex="1" connectable="0" parent="219">
                    <mxGeometry x="0.4257" y="2" relative="1" as="geometry">
                        <mxPoint x="20" y="2" as="offset"/>
                    </mxGeometry>
                </mxCell>
                <mxCell id="220" style="edgeStyle=none;html=1;exitX=0.5;exitY=1;exitDx=0;exitDy=0;entryX=0;entryY=0.5;entryDx=0;entryDy=0;" edge="1" parent="1" source="215" target="216">
                    <mxGeometry relative="1" as="geometry">
                        <Array as="points">
                            <mxPoint x="440" y="1010"/>
                            <mxPoint x="480" y="1010"/>
                            <mxPoint x="480" y="980"/>
                        </Array>
                    </mxGeometry>
                </mxCell>
                <mxCell id="221" value="Да" style="edgeLabel;html=1;align=center;verticalAlign=middle;resizable=0;points=[];" vertex="1" connectable="0" parent="220">
                    <mxGeometry x="0.4257" y="-1" relative="1" as="geometry">
                        <mxPoint x="14" y="-1" as="offset"/>
                    </mxGeometry>
                </mxCell>
                <mxCell id="215" value="Последний бит workModeReg &lt;br&gt;равен 1" style="rhombus;whiteSpace=wrap;html=1;glass=0;gradientColor=none;" vertex="1" parent="1">
                    <mxGeometry x="380" y="880" width="120" height="120" as="geometry"/>
                </mxCell>
                <mxCell id="237" style="edgeStyle=none;html=1;entryX=0.5;entryY=0;entryDx=0;entryDy=0;" edge="1" parent="1" source="216" target="236">
                    <mxGeometry relative="1" as="geometry"/>
                </mxCell>
                <mxCell id="216" value="settings_mode" style="shape=process;whiteSpace=wrap;html=1;backgroundOutline=1;glass=0;gradientColor=none;" vertex="1" parent="1">
                    <mxGeometry x="520" y="960" width="120" height="40" as="geometry"/>
                </mxCell>
                <mxCell id="315" style="edgeStyle=none;html=1;entryX=0;entryY=0.5;entryDx=0;entryDy=0;" edge="1" parent="1" source="217" target="225">
                    <mxGeometry relative="1" as="geometry"/>
                </mxCell>
                <mxCell id="217" value="work_mode" style="shape=process;whiteSpace=wrap;html=1;backgroundOutline=1;glass=0;gradientColor=none;" vertex="1" parent="1">
                    <mxGeometry x="520" y="800" width="120" height="40" as="geometry"/>
                </mxCell>
                <mxCell id="316" style="edgeStyle=none;html=1;entryX=0;entryY=0.5;entryDx=0;entryDy=0;" edge="1" parent="1" source="225" target="267">
                    <mxGeometry relative="1" as="geometry"/>
                </mxCell>
                <mxCell id="225" value="Вывод ШИМ&lt;br&gt;на порты" style="rounded=1;whiteSpace=wrap;html=1;glass=0;gradientColor=none;" vertex="1" parent="1">
                    <mxGeometry x="680" y="800" width="120" height="40" as="geometry"/>
                </mxCell>
                <mxCell id="241" style="edgeStyle=none;html=1;entryX=0.5;entryY=0;entryDx=0;entryDy=0;" edge="1" parent="1" source="236">
                    <mxGeometry relative="1" as="geometry">
                        <mxPoint x="580" y="1080" as="targetPoint"/>
                    </mxGeometry>
                </mxCell>
                <mxCell id="236" value="Обнулить ШИМ&lt;br&gt;на портах" style="rounded=1;whiteSpace=wrap;html=1;glass=0;gradientColor=none;" vertex="1" parent="1">
                    <mxGeometry x="520" y="1020" width="120" height="40" as="geometry"/>
                </mxCell>
                <mxCell id="274" style="edgeStyle=none;html=1;entryX=0;entryY=0.5;entryDx=0;entryDy=0;exitX=0.5;exitY=0;exitDx=0;exitDy=0;" edge="1" parent="1" source="238" target="271">
                    <mxGeometry relative="1" as="geometry">
                        <Array as="points">
                            <mxPoint x="740" y="980"/>
                        </Array>
                    </mxGeometry>
                </mxCell>
                <mxCell id="275" value="1" style="edgeLabel;html=1;align=center;verticalAlign=middle;resizable=0;points=[];" vertex="1" connectable="0" parent="274">
                    <mxGeometry x="0.023" relative="1" as="geometry">
                        <mxPoint x="14" as="offset"/>
                    </mxGeometry>
                </mxCell>
                <mxCell id="279" style="edgeStyle=none;html=1;entryX=0;entryY=0.5;entryDx=0;entryDy=0;" edge="1" parent="1" source="238" target="277">
                    <mxGeometry relative="1" as="geometry"/>
                </mxCell>
                <mxCell id="280" value="2" style="edgeLabel;html=1;align=center;verticalAlign=middle;resizable=0;points=[];" vertex="1" connectable="0" parent="279">
                    <mxGeometry x="-0.28" relative="1" as="geometry">
                        <mxPoint as="offset"/>
                    </mxGeometry>
                </mxCell>
                <mxCell id="284" style="edgeStyle=none;html=1;entryX=0;entryY=0.5;entryDx=0;entryDy=0;exitX=0.5;exitY=1;exitDx=0;exitDy=0;" edge="1" parent="1" source="238" target="282">
                    <mxGeometry relative="1" as="geometry">
                        <Array as="points">
                            <mxPoint x="740" y="1100"/>
                        </Array>
                    </mxGeometry>
                </mxCell>
                <mxCell id="285" value="3" style="edgeLabel;html=1;align=center;verticalAlign=middle;resizable=0;points=[];" vertex="1" connectable="0" parent="284">
                    <mxGeometry x="0.3688" relative="1" as="geometry">
                        <mxPoint x="-5" as="offset"/>
                    </mxGeometry>
                </mxCell>
                <mxCell id="238" value="В зависимости&lt;br&gt;от режима" style="rhombus;whiteSpace=wrap;html=1;glass=0;gradientColor=none;" vertex="1" parent="1">
                    <mxGeometry x="680" y="1000" width="120" height="80" as="geometry"/>
                </mxCell>
                <mxCell id="243" style="edgeStyle=none;html=1;entryX=0;entryY=0.5;entryDx=0;entryDy=0;exitX=0.5;exitY=1;exitDx=0;exitDy=0;" edge="1" parent="1" source="242" target="238">
                    <mxGeometry relative="1" as="geometry">
                        <Array as="points">
                            <mxPoint x="580" y="1120"/>
                            <mxPoint x="660" y="1120"/>
                            <mxPoint x="660" y="1040"/>
                        </Array>
                    </mxGeometry>
                </mxCell>
                <mxCell id="242" value="adc_convert" style="shape=hexagon;perimeter=hexagonPerimeter2;whiteSpace=wrap;html=1;fixedSize=1;glass=0;gradientColor=none;" vertex="1" parent="1">
                    <mxGeometry x="520" y="1080" width="120" height="20" as="geometry"/>
                </mxCell>
                <mxCell id="246" style="edgeStyle=none;html=1;entryX=0.5;entryY=0;entryDx=0;entryDy=0;" edge="1" parent="1" source="244" target="245">
                    <mxGeometry relative="1" as="geometry"/>
                </mxCell>
                <mxCell id="244" value="pushByte" style="shape=process;whiteSpace=wrap;html=1;backgroundOutline=1;" vertex="1" parent="1">
                    <mxGeometry x="890" y="40" width="120" height="40" as="geometry"/>
                </mxCell>
                <mxCell id="248" style="edgeStyle=none;html=1;entryX=0.5;entryY=0;entryDx=0;entryDy=0;" edge="1" parent="1" source="245" target="247">
                    <mxGeometry relative="1" as="geometry"/>
                </mxCell>
                <mxCell id="245" value="printByte_func" style="shape=hexagon;perimeter=hexagonPerimeter2;whiteSpace=wrap;html=1;fixedSize=1;glass=0;gradientColor=none;" vertex="1" parent="1">
                    <mxGeometry x="890" y="100" width="120" height="40" as="geometry"/>
                </mxCell>
                <mxCell id="250" style="edgeStyle=none;html=1;entryX=0.5;entryY=0;entryDx=0;entryDy=0;" edge="1" parent="1" source="247" target="249">
                    <mxGeometry relative="1" as="geometry"/>
                </mxCell>
                <mxCell id="247" value="Сохранить tmp_reg&lt;br&gt;и SREG в стек" style="rounded=1;whiteSpace=wrap;html=1;" vertex="1" parent="1">
                    <mxGeometry x="890" y="160" width="120" height="40" as="geometry"/>
                </mxCell>
                <mxCell id="252" style="edgeStyle=none;html=1;entryX=0.5;entryY=0;entryDx=0;entryDy=0;" edge="1" parent="1" source="249" target="251">
                    <mxGeometry relative="1" as="geometry"/>
                </mxCell>
                <mxCell id="249" value="Вывести в PORTD верхнюю половину" style="rounded=1;whiteSpace=wrap;html=1;" vertex="1" parent="1">
                    <mxGeometry x="890" y="220" width="120" height="40" as="geometry"/>
                </mxCell>
                <mxCell id="254" style="edgeStyle=none;html=1;entryX=0.5;entryY=0;entryDx=0;entryDy=0;" edge="1" parent="1" source="251" target="253">
                    <mxGeometry relative="1" as="geometry"/>
                </mxCell>
                <mxCell id="251" value="Вывести в PORTC нижнюю половину" style="rounded=1;whiteSpace=wrap;html=1;" vertex="1" parent="1">
                    <mxGeometry x="890" y="280" width="120" height="40" as="geometry"/>
                </mxCell>
                <mxCell id="256" style="edgeStyle=none;html=1;entryX=0.5;entryY=0;entryDx=0;entryDy=0;" edge="1" parent="1" source="253" target="255">
                    <mxGeometry relative="1" as="geometry"/>
                </mxCell>
                <mxCell id="253" value="Считать tmp_reg&lt;br&gt;и SREG из стека" style="rounded=1;whiteSpace=wrap;html=1;" vertex="1" parent="1">
                    <mxGeometry x="890" y="340" width="120" height="40" as="geometry"/>
                </mxCell>
                <mxCell id="255" value="Вернуться в &lt;br&gt;место вызова" style="shape=hexagon;perimeter=hexagonPerimeter2;whiteSpace=wrap;html=1;fixedSize=1;" vertex="1" parent="1">
                    <mxGeometry x="890" y="400" width="120" height="40" as="geometry"/>
                </mxCell>
                <mxCell id="262" style="edgeStyle=none;html=1;entryX=0.5;entryY=0;entryDx=0;entryDy=0;" edge="1" parent="1" source="258" target="261">
                    <mxGeometry relative="1" as="geometry"/>
                </mxCell>
                <mxCell id="258" value="Задать PORTB&lt;br&gt;для разряда" style="rounded=1;whiteSpace=wrap;html=1;glass=0;gradientColor=none;" vertex="1" parent="1">
                    <mxGeometry x="1060" y="100" width="120" height="40" as="geometry"/>
                </mxCell>
                <mxCell id="260" style="edgeStyle=none;html=1;entryX=0.5;entryY=0;entryDx=0;entryDy=0;" edge="1" parent="1" source="259" target="258">
                    <mxGeometry relative="1" as="geometry"/>
                </mxCell>
                <mxCell id="259" value="Запись в&amp;nbsp;&lt;br&gt;разряд" style="shape=parallelogram;perimeter=parallelogramPerimeter;whiteSpace=wrap;html=1;fixedSize=1;glass=0;gradientColor=none;" vertex="1" parent="1">
                    <mxGeometry x="1060" y="40" width="120" height="40" as="geometry"/>
                </mxCell>
                <mxCell id="264" style="edgeStyle=none;html=1;entryX=0.5;entryY=0;entryDx=0;entryDy=0;" edge="1" parent="1" source="261" target="263">
                    <mxGeometry relative="1" as="geometry"/>
                </mxCell>
                <mxCell id="261" value="Задать printbyte" style="rounded=1;whiteSpace=wrap;html=1;glass=0;gradientColor=none;" vertex="1" parent="1">
                    <mxGeometry x="1060" y="160" width="120" height="40" as="geometry"/>
                </mxCell>
                <mxCell id="266" style="edgeStyle=none;html=1;entryX=0.5;entryY=0;entryDx=0;entryDy=0;" edge="1" parent="1" source="263" target="265">
                    <mxGeometry relative="1" as="geometry"/>
                </mxCell>
                <mxCell id="263" value="pushByte" style="shape=hexagon;perimeter=hexagonPerimeter2;whiteSpace=wrap;html=1;fixedSize=1;glass=0;gradientColor=none;" vertex="1" parent="1">
                    <mxGeometry x="1060" y="220" width="120" height="40" as="geometry"/>
                </mxCell>
                <mxCell id="265" value="delay" style="shape=hexagon;perimeter=hexagonPerimeter2;whiteSpace=wrap;html=1;fixedSize=1;glass=0;gradientColor=none;" vertex="1" parent="1">
                    <mxGeometry x="1060" y="280" width="120" height="40" as="geometry"/>
                </mxCell>
                <mxCell id="314" style="edgeStyle=none;html=1;entryX=0;entryY=0.5;entryDx=0;entryDy=0;" edge="1" parent="1" source="267" target="268">
                    <mxGeometry relative="1" as="geometry"/>
                </mxCell>
                <mxCell id="267" value="Написать - в &lt;br&gt;первый разряд" style="shape=parallelogram;perimeter=parallelogramPerimeter;whiteSpace=wrap;html=1;fixedSize=1;glass=0;gradientColor=none;" vertex="1" parent="1">
                    <mxGeometry x="820" y="800" width="120" height="40" as="geometry"/>
                </mxCell>
                <mxCell id="313" style="edgeStyle=none;html=1;" edge="1" parent="1" source="268" target="269">
                    <mxGeometry relative="1" as="geometry"/>
                </mxCell>
                <mxCell id="268" value="Написать о&amp;nbsp;во второй разряд" style="shape=parallelogram;perimeter=parallelogramPerimeter;whiteSpace=wrap;html=1;fixedSize=1;glass=0;gradientColor=none;" vertex="1" parent="1">
                    <mxGeometry x="940" y="800" width="120" height="40" as="geometry"/>
                </mxCell>
                <mxCell id="312" style="edgeStyle=none;html=1;entryX=0;entryY=0.5;entryDx=0;entryDy=0;" edge="1" parent="1" source="269" target="270">
                    <mxGeometry relative="1" as="geometry"/>
                </mxCell>
                <mxCell id="269" value="Написать n&amp;nbsp;в &lt;br&gt;третий разряд" style="shape=parallelogram;perimeter=parallelogramPerimeter;whiteSpace=wrap;html=1;fixedSize=1;glass=0;gradientColor=none;" vertex="1" parent="1">
                    <mxGeometry x="1060" y="800" width="120" height="40" as="geometry"/>
                </mxCell>
                <mxCell id="317" style="edgeStyle=none;html=1;entryX=1;entryY=0.5;entryDx=0;entryDy=0;exitX=1;exitY=0.5;exitDx=0;exitDy=0;" edge="1" parent="1" source="270" target="211">
                    <mxGeometry relative="1" as="geometry">
                        <Array as="points">
                            <mxPoint x="1350" y="820"/>
                            <mxPoint x="1350" y="780"/>
                        </Array>
                    </mxGeometry>
                </mxCell>
                <mxCell id="318" style="edgeStyle=none;html=1;" edge="1" parent="1" source="270">
                    <mxGeometry relative="1" as="geometry">
                        <mxPoint x="1350" y="790" as="targetPoint"/>
                        <Array as="points">
                            <mxPoint x="1350" y="820"/>
                        </Array>
                    </mxGeometry>
                </mxCell>
                <mxCell id="270" value="Написать -&amp;nbsp;в&amp;nbsp;&lt;br&gt;четвертый разряд" style="shape=parallelogram;perimeter=parallelogramPerimeter;whiteSpace=wrap;html=1;fixedSize=1;glass=0;gradientColor=none;" vertex="1" parent="1">
                    <mxGeometry x="1180" y="800" width="140" height="40" as="geometry"/>
                </mxCell>
                <mxCell id="273" style="edgeStyle=none;html=1;entryX=0;entryY=0.5;entryDx=0;entryDy=0;" edge="1" parent="1" source="271" target="272">
                    <mxGeometry relative="1" as="geometry"/>
                </mxCell>
                <mxCell id="271" value="Написать d в &lt;br&gt;первый разряд" style="shape=parallelogram;perimeter=parallelogramPerimeter;whiteSpace=wrap;html=1;fixedSize=1;glass=0;gradientColor=none;" vertex="1" parent="1">
                    <mxGeometry x="820" y="960" width="120" height="40" as="geometry"/>
                </mxCell>
                <mxCell id="290" style="edgeStyle=none;html=1;entryX=0;entryY=0.5;entryDx=0;entryDy=0;exitX=1;exitY=0.5;exitDx=0;exitDy=0;" edge="1" parent="1" source="272" target="286">
                    <mxGeometry relative="1" as="geometry"/>
                </mxCell>
                <mxCell id="272" value="Написать 1. во&lt;br&gt;второй разряд" style="shape=parallelogram;perimeter=parallelogramPerimeter;whiteSpace=wrap;html=1;fixedSize=1;glass=0;gradientColor=none;" vertex="1" parent="1">
                    <mxGeometry x="940" y="960" width="120" height="40" as="geometry"/>
                </mxCell>
                <mxCell id="276" style="edgeStyle=none;html=1;entryX=0;entryY=0.5;entryDx=0;entryDy=0;" edge="1" parent="1" source="277" target="278">
                    <mxGeometry relative="1" as="geometry"/>
                </mxCell>
                <mxCell id="277" value="Написать d в &lt;br&gt;первый разряд" style="shape=parallelogram;perimeter=parallelogramPerimeter;whiteSpace=wrap;html=1;fixedSize=1;glass=0;gradientColor=none;" vertex="1" parent="1">
                    <mxGeometry x="820" y="1020" width="120" height="40" as="geometry"/>
                </mxCell>
                <mxCell id="292" style="edgeStyle=none;html=1;entryX=0;entryY=0.5;entryDx=0;entryDy=0;exitX=1;exitY=0.5;exitDx=0;exitDy=0;" edge="1" parent="1" source="278" target="287">
                    <mxGeometry relative="1" as="geometry"/>
                </mxCell>
                <mxCell id="278" value="Написать 2. во&lt;br&gt;второй разряд" style="shape=parallelogram;perimeter=parallelogramPerimeter;whiteSpace=wrap;html=1;fixedSize=1;glass=0;gradientColor=none;" vertex="1" parent="1">
                    <mxGeometry x="940" y="1020" width="120" height="40" as="geometry"/>
                </mxCell>
                <mxCell id="281" style="edgeStyle=none;html=1;entryX=0;entryY=0.5;entryDx=0;entryDy=0;" edge="1" parent="1" source="282" target="283">
                    <mxGeometry relative="1" as="geometry"/>
                </mxCell>
                <mxCell id="282" value="Написать C в &lt;br&gt;первый разряд" style="shape=parallelogram;perimeter=parallelogramPerimeter;whiteSpace=wrap;html=1;fixedSize=1;glass=0;gradientColor=none;" vertex="1" parent="1">
                    <mxGeometry x="820" y="1080" width="120" height="40" as="geometry"/>
                </mxCell>
                <mxCell id="293" style="edgeStyle=none;html=1;entryX=0;entryY=0.5;entryDx=0;entryDy=0;exitX=1;exitY=0.5;exitDx=0;exitDy=0;" edge="1" parent="1" source="283" target="289">
                    <mxGeometry relative="1" as="geometry"/>
                </mxCell>
                <mxCell id="283" value="Написать H. во&lt;br&gt;второй разряд" style="shape=parallelogram;perimeter=parallelogramPerimeter;whiteSpace=wrap;html=1;fixedSize=1;glass=0;gradientColor=none;" vertex="1" parent="1">
                    <mxGeometry x="940" y="1080" width="120" height="40" as="geometry"/>
                </mxCell>
                <mxCell id="297" style="edgeStyle=none;html=1;entryX=0;entryY=0.5;entryDx=0;entryDy=0;" edge="1" parent="1" source="286" target="294">
                    <mxGeometry relative="1" as="geometry"/>
                </mxCell>
                <mxCell id="286" value="Написать старшие &lt;br&gt;4 бита АЦП в&lt;br&gt;третий разряд" style="shape=parallelogram;perimeter=parallelogramPerimeter;whiteSpace=wrap;html=1;fixedSize=1;glass=0;gradientColor=none;" vertex="1" parent="1">
                    <mxGeometry x="1060" y="960" width="160" height="40" as="geometry"/>
                </mxCell>
                <mxCell id="296" style="edgeStyle=none;html=1;entryX=0;entryY=0.5;entryDx=0;entryDy=0;" edge="1" parent="1" source="287" target="295">
                    <mxGeometry relative="1" as="geometry"/>
                </mxCell>
                <mxCell id="287" value="Написать старшие &lt;br&gt;4 бита АЦП в&lt;br&gt;третий разряд" style="shape=parallelogram;perimeter=parallelogramPerimeter;whiteSpace=wrap;html=1;fixedSize=1;glass=0;gradientColor=none;" vertex="1" parent="1">
                    <mxGeometry x="1060" y="1020" width="160" height="40" as="geometry"/>
                </mxCell>
                <mxCell id="299" style="edgeStyle=none;html=1;entryX=0;entryY=0.5;entryDx=0;entryDy=0;" edge="1" parent="1" source="289" target="298">
                    <mxGeometry relative="1" as="geometry"/>
                </mxCell>
                <mxCell id="289" value="Написать&lt;br&gt;7 бит АЦП в&lt;br&gt;третий разряд" style="shape=parallelogram;perimeter=parallelogramPerimeter;whiteSpace=wrap;html=1;fixedSize=1;glass=0;gradientColor=none;" vertex="1" parent="1">
                    <mxGeometry x="1060" y="1080" width="160" height="40" as="geometry"/>
                </mxCell>
                <mxCell id="308" style="edgeStyle=none;html=1;" edge="1" parent="1" source="294" target="303">
                    <mxGeometry relative="1" as="geometry"/>
                </mxCell>
                <mxCell id="294" value="Написать младшие&lt;br&gt;4 бита АЦП в&lt;br&gt;четвертый разряд" style="shape=parallelogram;perimeter=parallelogramPerimeter;whiteSpace=wrap;html=1;fixedSize=1;glass=0;gradientColor=none;" vertex="1" parent="1">
                    <mxGeometry x="1220" y="960" width="160" height="40" as="geometry"/>
                </mxCell>
                <mxCell id="307" style="edgeStyle=none;html=1;" edge="1" parent="1" source="295" target="304">
                    <mxGeometry relative="1" as="geometry"/>
                </mxCell>
                <mxCell id="295" value="Написать младшие&lt;br&gt;4 бита АЦП в&lt;br&gt;четвертый разряд" style="shape=parallelogram;perimeter=parallelogramPerimeter;whiteSpace=wrap;html=1;fixedSize=1;glass=0;gradientColor=none;" vertex="1" parent="1">
                    <mxGeometry x="1220" y="1020" width="160" height="40" as="geometry"/>
                </mxCell>
                <mxCell id="306" style="edgeStyle=none;html=1;entryX=0;entryY=0.5;entryDx=0;entryDy=0;" edge="1" parent="1" source="298" target="305">
                    <mxGeometry relative="1" as="geometry"/>
                </mxCell>
                <mxCell id="298" value="Написать&lt;br&gt;6 бит АЦП в&lt;br&gt;четвертый разряд" style="shape=parallelogram;perimeter=parallelogramPerimeter;whiteSpace=wrap;html=1;fixedSize=1;glass=0;gradientColor=none;" vertex="1" parent="1">
                    <mxGeometry x="1220" y="1080" width="160" height="40" as="geometry"/>
                </mxCell>
                <mxCell id="309" style="edgeStyle=none;html=1;" edge="1" parent="1" source="303">
                    <mxGeometry relative="1" as="geometry">
                        <mxPoint x="1340" y="780" as="targetPoint"/>
                        <Array as="points">
                            <mxPoint x="1550" y="980"/>
                            <mxPoint x="1550" y="780"/>
                        </Array>
                    </mxGeometry>
                </mxCell>
                <mxCell id="303" value="Сохранить значение &lt;br&gt;АЦП в pwm1" style="rounded=1;whiteSpace=wrap;html=1;glass=0;gradientColor=none;" vertex="1" parent="1">
                    <mxGeometry x="1400" y="960" width="120" height="40" as="geometry"/>
                </mxCell>
                <mxCell id="310" style="edgeStyle=none;html=1;" edge="1" parent="1" source="304">
                    <mxGeometry relative="1" as="geometry">
                        <mxPoint x="1550" y="960" as="targetPoint"/>
                        <Array as="points">
                            <mxPoint x="1550" y="1040"/>
                        </Array>
                    </mxGeometry>
                </mxCell>
                <mxCell id="304" value="Сохранить значение &lt;br&gt;АЦП в pwm2" style="rounded=1;whiteSpace=wrap;html=1;glass=0;gradientColor=none;" vertex="1" parent="1">
                    <mxGeometry x="1400" y="1020" width="120" height="40" as="geometry"/>
                </mxCell>
                <mxCell id="311" style="edgeStyle=none;html=1;" edge="1" parent="1" source="305">
                    <mxGeometry relative="1" as="geometry">
                        <mxPoint x="1550" y="960" as="targetPoint"/>
                        <Array as="points">
                            <mxPoint x="1550" y="1100"/>
                        </Array>
                    </mxGeometry>
                </mxCell>
                <mxCell id="305" value="Сохранить значение &lt;br&gt;АЦП в workModeReg" style="rounded=1;whiteSpace=wrap;html=1;glass=0;gradientColor=none;" vertex="1" parent="1">
                    <mxGeometry x="1400" y="1080" width="120" height="40" as="geometry"/>
                </mxCell>
            </root>
        </mxGraphModel>
    </diagram>
</mxfile>